HIERARCHY
ROOT Spine
{
    OFFSET 0.0 0.0 -0.0
    CHANNELS 6 Xposition Yposition Zposition Zrotation Xrotation Yrotation
    JOINT ShoulderCenter
    {
        OFFSET 0.0 33.27177047729492 0.0
        CHANNELS 3 Zrotation Xrotation Yrotation
        JOINT LeftShoulder
        {
            OFFSET 17.754846572875977 0.0 0.0
            CHANNELS 3 Zrotation Xrotation Yrotation
            JOINT LeftElbow
            {
                OFFSET 29.747600555419922 0.0 0.0
                CHANNELS 3 Zrotation Xrotation Yrotation
                JOINT LeftHand
                {
                    OFFSET 32.90536117553711 0.0 0.0
                    CHANNELS 3 Zrotation Xrotation Yrotation
                    End Site
                    {
                        OFFSET 13.16214370727539 0.0 0.0
                    }
                }
            }
        }
        JOINT RightShoulder
        {
            OFFSET -17.754846572875977 0.0 0.0
            CHANNELS 3 Zrotation Xrotation Yrotation
            JOINT RightElbow
            {
                OFFSET -29.747600555419922 0.0 0.0
                CHANNELS 3 Zrotation Xrotation Yrotation
                JOINT RightHand
                {
                    OFFSET -32.90536117553711 0.0 0.0
                    CHANNELS 3 Zrotation Xrotation Yrotation
                    End Site
                    {
                        OFFSET -13.16214370727539 0.0 0.0
                    }
                }
            }
        }
        End Site
        {
            OFFSET 0.0 13.308709144592285 0.0
        }
    }
    JOINT LeftHip
    {
        OFFSET 15.454918917652515 -15.454918917652515 0.0
        CHANNELS 3 Zrotation Xrotation Yrotation
        JOINT LeftKnee
        {
            OFFSET 0.0 -42.080963134765625 0.0
            CHANNELS 3 Zrotation Xrotation Yrotation
            JOINT LeftFoot
            {
                OFFSET 0.0 -45.66726303100586 0.0
                CHANNELS 3 Zrotation Xrotation Yrotation
                End Site
                {
                    OFFSET 0.0 0.0 18.266904830932617
                }
            }
        }
    }
    JOINT RightHip
    {
        OFFSET -15.454918917652515 -15.454918917652515 0.0
        CHANNELS 3 Zrotation Xrotation Yrotation
        JOINT RightKnee
        {
            OFFSET 0.0 -42.080963134765625 0.0
            CHANNELS 3 Zrotation Xrotation Yrotation
            JOINT RightFoot
            {
                OFFSET 0.0 -45.66726303100586 0.0
                CHANNELS 3 Zrotation Xrotation Yrotation
                End Site
                {
                    OFFSET 0.0 0.0 18.266904830932617
                }
            }
        }
    }
}
MOTION
Frames: 6
Frame Time: 0.03333333333333333
38.10000228881836 3.0999999046325684 -94.4000015258789 -0.9612483687181809 27.325660493537846 14.76133193457811 -1.89375036332805e-07 -3.851781125989846e-07 -2.7943493366312464 96.87975754350552 3.4646260466539243 -159.80963062576757 5.22924718380473e-06 2.1679192884521323e-06 59.64572344768408 3.1805546814635168e-15 -3.1805546814635168e-15 3.1805546814635168e-15 -95.37544290244156 31.312786247343222 171.0891304797444 -3.617991900906731e-06 -1.6187782701997746e-06 -78.64377572964094 -6.3611093629270335e-15 6.3611093629270335e-15 3.1805546814635168e-15 26.087637389985304 -53.74851903559536 101.26649039081815 47.47078361097144 12.567280321882395 -144.09842312177267 -2.981770013872046e-16 3.0065426200097515e-33 -1.155435880375418e-15 -39.69287281984658 -60.068643075671865 -119.0099424874315 -43.36967824263608 4.685333521104535 132.24627226817506 1.8966003624434275e-32 7.951386703658792e-16 -2.7332891793827097e-15
39.29999923706055 2.700000047683716 -91.69999694824219 -1.5640002189780873 28.929207678001234 15.039726810411812 5.541055646741455e-07 1.2880326217451108e-06 -2.2005198805740456 97.6052006132664 -0.03408044137827109 -155.81132850365773 5.289141647136951e-07 -5.982383914289374e-08 58.60299439940181 -1.5902773407317584e-15 -3.1805546814635168e-15 3.1805546814635168e-15 -94.45283759933865 31.983182116731598 166.1683315184249 -1.46121776953413e-06 -2.658991602503243e-06 -80.09823227484864 -3.1805546814635168e-15 6.3611093629270335e-15 1.7655625192200634e-31 27.999539958325038 -56.300781690423904 103.37023811757703 38.62821063504361 8.29915995027032 -122.54090246530583 0.0 0.0 -1.987846675914698e-16 -41.370241220884125 -60.475391684064206 -121.43954053485405 -44.49619062660265 4.055139717810994 138.98515697891412 -7.241565020238542e-33 -3.9756933518293955e-16 -2.0872390097104326e-15
40.70000076293945 2.200000047683716 -89.0999984741211 -2.36950969624209 30.062907380866836 15.011188752124355 2.0874235064455962e-07 1.1395504282291108e-06 -1.3609111801247 99.37572825496237 -3.992114955894656 -151.77682708569841 -3.484234576031685e-06 -1.936043752472102e-06 58.02310479853049 -1.5902773407317584e-15 -6.3611093629270335e-15 -8.827812596100317e-32 -92.98865226467329 32.158894934054665 160.36703574684458 2.8104207805338796e-06 -3.4245361474902407e-07 -81.02858934049277 -3.1805546814635168e-15 -1.7655625192200634e-31 6.3611093629270335e-15 29.181035019506947 -57.0633037422848 103.71641698281302 27.662832425232452 4.587305587035781 -33.971701217285386 0.0 0.0 -6.3611093629270335e-15 -41.742941433551394 -60.86181268477394 -122.11188390549285 -45.75892013908467 3.8088818636728417 143.45104928942803 -7.951386703658791e-16 -1.5902773407317582e-15 1.689669674527493e-15
42.39999771118164 1.7999999523162842 -86.69999694824219 -3.4255981044670443 31.7413878746469 14.95499386241179 -8.599058596621723e-08 1.0945156978378246e-06 -0.7060644644616342 101.75738301961853 -7.878053919048413 -146.0979906354516 2.262800305540054e-06 -1.119424086268638e-06 56.6291457099652 0.0 0.0 0.0 -91.65657844037514 31.475439175231152 153.77184835115736 3.454358367142676e-07 -1.7967269629703445e-06 -82.00255381607187 -3.1805546814635168e-15 0.0 0.0 30.581045928483523 -58.12751153722549 104.90404026894052 18.12004750982474 1.6681793727664855 -5.445714289738111 0.0 0.0 7.951386703658791e-16 -43.012341302463454 -61.245298721069354 -123.98352122415481 -46.36281534791055 3.7997374686143774 145.4531025884115 -7.951386703658792e-16 -2.827658722188383e-32 4.075085685625131e-15
44.400001525878906 1.2000000476837158 -84.5 -4.085609386022119 32.95729477944665 13.941670803243152 4.401441418854243e-07 2.4771393835831866e-06 -0.36911540476657323 103.26012007057312 -10.412609895082905 -141.49011724405173 4.476492653622003e-06 -1.7636725703683797e-06 55.75389338234853 4.770832022195277e-15 -3.1805546814635176e-15 1.3241718894150476e-31 -90.28646826848887 29.446758011116433 147.49013931130338 -1.6093895232786613e-06 1.815222526543593e-07 -83.2013432485225 3.1805546814635176e-15 0.0 0.0 34.03971109263829 -58.80374888028374 109.80766360241886 13.459203915470995 0.9356167190889506 -2.299965750602301 1.5902773407317584e-15 2.2069531490250793e-32 1.5902773407317584e-15 -44.888140712740466 -61.9286664528147 -126.40548885953316 -48.35770296381632 4.208368401725455 149.24691982403158 1.5902773407317582e-15 -1.1862373176009802e-31 -8.5477407064332e-15
46.900001525878906 0.10000000149011612 -82.5 -4.351074143037399 34.042303999026096 13.053183040858064 2.6962246563245823e-09 2.578029616243625e-06 -0.17901174763217007 104.6451191637355 -12.86615133209168 -136.07658827026606 -3.5704835723530747e-06 -8.850988428203811e-08 54.02106481264813 6.361109362927033e-15 0.0 0.0 -90.21045652064983 27.047581807147175 141.0815766165324 -8.103839471722037e-07 7.698655617371331e-07 -83.66500080367187 -3.1805546814635176e-15 0.0 0.0 36.57383198749621 -61.12024204415724 111.52717479583922 15.775735214583475 0.9699428074280982 -2.3744776075612677 1.5902773407317582e-15 -7.951386703658792e-16 -3.975693351829395e-15 -53.89605522028246 -62.20247027574514 -138.55814120555448 -53.271946841317586 3.847313821060607 156.10507563382757 1.2931366107568823e-32 -1.9878466759146975e-16 7.454425034680115e-15
